<svg width="1764" height="328" viewBox="0 0 1764 328" fill="none" xmlns="http://www.w3.org/2000/svg">
	<path d="M369.937 217.928L377.921 198.551C386.459 204.538 394.859 207.532 403.12 207.532C415.816 207.532 422.166 203.098 422.166 194.225C422.166 190.067 420.669 186.103 417.675 182.332C414.681 178.562 408.512 174.334 399.171 169.648C389.827 164.962 383.535 161.111 380.292 158.089C377.049 155.067 374.553 151.476 372.807 147.318C371.06 143.16 370.187 138.557 370.187 133.512C370.187 124.086 373.638 116.269 380.541 110.057C387.444 103.849 396.301 100.743 407.112 100.743C421.195 100.743 431.535 103.378 438.133 108.645L431.564 127.274C423.967 121.842 415.956 119.125 407.528 119.125C402.538 119.125 398.671 120.443 395.926 123.075C393.182 125.708 391.81 129.134 391.81 133.346C391.81 140.332 399.544 147.596 415.014 155.136C423.164 159.128 429.041 162.801 432.645 166.155C436.248 169.511 438.993 173.419 440.879 177.881C442.763 182.346 443.706 187.322 443.706 192.813C443.706 202.681 439.81 210.803 432.021 217.179C424.232 223.555 413.793 226.743 400.709 226.743C389.342 226.744 379.085 223.806 369.937 217.928Z" fill="#2F89EA"/>
	<path d="M541.095 186.491H477.471C477.858 193.589 480.299 199.104 484.79 203.04C489.281 206.979 495.324 208.946 502.92 208.946C512.401 208.946 519.608 206.479 524.544 201.546L532.611 217.43C525.292 223.365 514.369 226.327 499.843 226.327C486.258 226.327 475.516 222.349 467.616 214.393C459.715 206.438 455.764 195.334 455.764 181.084C455.764 167.057 460.102 155.691 468.78 146.986C477.457 138.282 487.866 133.929 500.009 133.929C512.927 133.929 523.295 137.783 531.113 145.489C538.93 153.197 542.84 163.01 542.84 174.929C542.841 177.481 542.259 181.335 541.095 186.491ZM478.22 170.855H521.966C520.524 157.827 513.317 151.311 500.342 151.311C488.477 151.312 481.102 157.827 478.22 170.855Z" fill="#2F89EA"/>
	<path d="M617.358 259.597V222.169C612.368 224.941 605.493 226.327 596.732 226.327C583.759 226.327 573.612 222.376 566.294 214.477C558.974 206.576 555.315 195.417 555.315 181.002C555.315 166.643 559.514 155.207 567.915 146.695C576.314 138.185 587.056 133.929 600.141 133.929C607.904 133.929 614.946 136.257 621.266 140.913L624.676 135.593H638.149V259.595H617.358V259.597ZM617.358 156.718C613.643 153.279 608.793 151.562 602.803 151.562C594.707 151.562 588.374 154.238 583.8 159.587C579.226 164.937 576.939 172.077 576.939 181.003C576.939 199.521 585.339 208.78 602.14 208.78C608.294 208.78 613.367 207.341 617.359 204.456V156.718H617.358Z" fill="#2F89EA"/>
	<path d="M716.327 224.747V217.263C713.387 219.758 709.341 221.892 704.183 223.665C699.027 225.441 694.287 226.327 689.962 226.327C669.281 226.327 658.941 215.349 658.941 193.394V135.594H679.733V191.814C679.733 203.236 684.86 208.946 695.119 208.946C699.83 208.946 704.211 207.727 708.26 205.287C712.306 202.849 714.996 200.02 716.327 196.804V135.595H737.119V224.747H716.327Z" fill="#2F89EA"/>
	<path d="M839.081 186.491H775.458C775.845 193.589 778.286 199.104 782.776 203.04C787.267 206.979 793.31 208.946 800.907 208.946C810.388 208.946 817.595 206.479 822.53 201.546L830.597 217.43C823.279 223.365 812.354 226.327 797.83 226.327C784.245 226.327 773.503 222.349 765.602 214.393C757.703 206.438 753.752 195.334 753.752 181.084C753.752 167.057 758.088 155.691 766.767 146.986C775.444 138.282 785.853 133.929 797.995 133.929C810.913 133.929 821.282 137.783 829.1 145.489C836.917 153.197 840.827 163.01 840.827 174.929C840.828 177.481 840.244 181.335 839.081 186.491ZM776.206 170.855H819.951C818.509 157.827 811.303 151.311 798.329 151.311C786.463 151.312 779.089 157.827 776.206 170.855Z" fill="#2F89EA"/>
	<path d="M861.036 102.409L881.828 97.419V197.552C881.828 208.531 885.099 215.073 891.642 217.18C888.425 223.281 882.937 226.327 875.175 226.327C865.748 226.327 861.036 219.785 861.036 206.7V102.409Z" fill="#2F89EA"/>
	<path d="M913.264 224.664V152.643H901.871V135.594H934.306V224.663H913.264V224.664ZM923.994 101.079C927.321 101.079 930.161 102.258 932.517 104.613C934.874 106.969 936.053 109.809 936.053 113.138C936.053 116.465 934.874 119.307 932.517 121.661C930.161 124.018 927.32 125.197 923.994 125.197C920.667 125.197 917.825 124.018 915.47 121.661C913.112 119.307 911.935 116.465 911.935 113.138C911.935 109.809 913.112 106.969 915.47 104.613C917.824 102.258 920.667 101.079 923.994 101.079Z" fill="#2F89EA"/>
	<path d="M952.686 224.664V217.597L1001.01 153.724H953.518V135.595H1031.36V142.912L984.789 206.533H1031.86V224.664H952.686Z" fill="#2F89EA"/>
	<path d="M1128 186.491H1064.38C1064.77 193.589 1067.21 199.104 1071.7 203.04C1076.19 206.979 1082.23 208.946 1089.83 208.946C1099.31 208.946 1106.52 206.479 1111.45 201.546L1119.52 217.43C1112.2 223.365 1101.28 226.327 1086.75 226.327C1073.17 226.327 1062.42 222.349 1054.52 214.393C1046.62 206.438 1042.67 195.334 1042.67 181.084C1042.67 167.057 1047.01 155.691 1055.69 146.986C1064.36 138.282 1074.77 133.929 1086.92 133.929C1099.84 133.929 1110.2 137.783 1118.02 145.489C1125.84 153.197 1129.75 163.01 1129.75 174.929C1129.75 177.481 1129.17 181.335 1128 186.491ZM1065.13 170.855H1108.87C1107.43 157.827 1100.23 151.311 1087.25 151.311C1075.38 151.312 1068.01 157.827 1065.13 170.855Z" fill="#2F89EA"/>
	<path d="M1187 195.645H1206.29C1208.12 202.742 1214.06 206.291 1224.09 206.291C1231.19 206.291 1236.19 203.99 1239.1 199.388C1242.01 194.786 1243.47 187.8 1243.47 178.43V102H1265.09V177.765C1265.09 193.954 1261.66 205.958 1254.78 213.776C1247.91 221.593 1236.87 225.502 1221.68 225.502C1211.59 225.502 1203.44 222.869 1197.23 217.602C1191.02 212.334 1187.61 205.016 1187 195.645Z" fill="#15C213"/>
	<path d="M1359.45 186.491H1295.83C1296.22 193.589 1298.66 199.104 1303.15 203.04C1307.64 206.979 1313.68 208.946 1321.28 208.946C1330.76 208.946 1337.97 206.479 1342.9 201.546L1350.97 217.43C1343.65 223.365 1332.73 226.327 1318.2 226.327C1304.62 226.327 1293.88 222.349 1285.97 214.393C1278.08 206.438 1274.12 195.334 1274.12 181.084C1274.12 167.057 1278.46 155.691 1287.14 146.986C1295.82 138.282 1306.23 133.929 1318.37 133.929C1331.29 133.929 1341.66 137.783 1349.47 145.489C1357.29 153.197 1361.2 163.01 1361.2 174.929C1361.2 177.481 1360.62 181.335 1359.45 186.491ZM1296.58 170.855H1340.33C1338.88 157.827 1331.68 151.311 1318.7 151.311C1306.84 151.312 1299.46 157.827 1296.58 170.855Z" fill="#15C213"/>
	<path d="M1372.34 218.927L1379.75 202.378C1385.95 207.312 1392.97 209.776 1400.79 209.776C1408.88 209.776 1412.93 206.895 1412.93 201.129C1412.93 197.746 1411.71 194.974 1409.27 192.814C1406.83 190.65 1402.09 188.101 1395.05 185.16C1379.69 178.787 1372.01 169.857 1372.01 158.383C1372.01 150.677 1374.95 144.674 1380.83 140.377C1386.7 136.08 1394.22 133.932 1403.37 133.932C1412.62 133.932 1421.33 136.01 1429.48 140.168L1423.49 156.303C1418.94 152.422 1412.62 150.481 1404.53 150.481C1397.27 150.481 1393.64 153.366 1393.64 159.131C1393.64 161.404 1394.83 163.455 1397.21 165.285C1399.6 167.115 1404.7 169.567 1412.52 172.643C1420.33 175.722 1425.96 179.451 1429.4 183.83C1432.83 188.212 1434.55 193.506 1434.55 199.717C1434.55 207.977 1431.49 214.479 1425.36 219.218C1419.24 223.957 1410.91 226.328 1400.37 226.328C1394.44 226.328 1389.68 225.844 1386.11 224.875C1382.53 223.902 1377.94 221.921 1372.34 218.927Z" fill="#15C213"/>
	<path d="M1454.35 152.31H1444.03V135.595H1454.35V117.464L1475.14 109.81V135.595H1499.59V152.31H1475.14V191.315C1475.14 197.691 1476.14 202.198 1478.13 204.83C1480.13 207.465 1483.62 208.781 1488.61 208.781C1493.6 208.781 1498.26 207.422 1502.58 204.704V223.834C1497.76 225.496 1490.88 226.328 1481.96 226.328C1473.09 226.328 1466.27 223.822 1461.5 218.803C1456.73 213.787 1454.35 206.647 1454.35 197.387L1454.35 152.31Z" fill="#15C213" fill-opacity="0.917647"/>
	<path d="M1585.08 226H1560V102H1585.08V157.068L1635.74 102H1669.45L1622.69 150.299L1672 226H1639.55L1605.41 167.808L1585.08 188.534V226Z" fill="#2F89EA"/>
	<path d="M296.805 70.832L148.401 0L0 70.832L148.401 139.281L296.805 70.832Z" fill="#2F89EA"/>
	<path d="M296.805 70.832L148.401 139.281V216.459H171.758V165.854C190.885 174.692 204.186 193.997 204.186 216.459C204.186 237.924 192.047 256.523 174.275 265.846V312.934L296.805 242.194V70.832Z" fill="#1B4680"/>
	<path d="M92.619 216.459C92.619 193.996 105.921 174.699 125.047 165.854V216.459H148.401V139.281L0 70.832V242.193L122.794 313.088V265.977C104.881 256.695 92.619 238.025 92.619 216.459Z" fill="#2379BD"/>
	<path d="M148.401 216.459H125.047V165.854C105.921 174.7 92.619 193.997 92.619 216.459C92.619 238.025 104.881 256.695 122.794 265.977V313.088L148.4 327.871V216.459H148.401Z" fill="#F2F2F2"/>
	<path d="M204.186 216.459C204.186 193.996 190.885 174.691 171.758 165.854V216.459H148.401V327.871L174.275 312.933V265.845C192.047 256.523 204.186 237.924 204.186 216.459Z" fill="#BFBBBB"/>
	<path d="M1700.4 130.765H1678V110H1700.4V130.765ZM1700.4 227.078H1678V142.263H1700.4V227.078ZM1746.86 142.263H1762.16V160.152H1746.86V194.338C1746.86 201.259 1747.01 205.292 1747.3 206.437C1747.59 207.582 1748.25 208.526 1749.29 209.269C1750.33 210.018 1751.59 210.392 1753.08 210.392C1755.15 210.392 1758.15 209.673 1762.08 208.235L1764 225.647C1758.79 227.882 1752.89 229 1746.3 229C1742.27 229 1738.63 228.32 1735.38 226.96C1732.14 225.605 1729.77 223.849 1728.25 221.692C1726.74 219.535 1725.69 216.619 1725.1 212.945C1724.63 210.338 1724.39 205.067 1724.39 197.133V160.152H1714.11V142.263H1724.39V125.416L1746.86 112.319V142.263Z" fill="#2F89EA"/>
	</svg>
	